<svg width="120" height="120" viewBox="0 0 120 120" xmlns="http://www.w3.org/2000/svg">
                        <defs>
                            <linearGradient id="grad1" x1="0%" y1="0%" x2="100%" y2="100%">
                                <stop offset="0%" style="stop-color:#667eea;stop-opacity:1"></stop>
                                <stop offset="100%" style="stop-color:#764ba2;stop-opacity:1"></stop>
                            </linearGradient>
                        </defs>
                        <!-- Shield outline -->
                        <path d="M60 10 L95 25 L95 55 Q95 85 60 110 Q25 85 25 55 L25 25 Z" fill="url(#grad1)" opacity="0.2" stroke="url(#grad1)" stroke-width="2"></path>
                        <!-- Brain circuit -->
                        <circle cx="45" cy="45" r="5" fill="url(#grad1)"></circle>
                        <circle cx="75" cy="45" r="5" fill="url(#grad1)"></circle>
                        <circle cx="45" cy="70" r="5" fill="url(#grad1)"></circle>
                        <circle cx="75" cy="70" r="5" fill="url(#grad1)"></circle>
                        <circle cx="60" cy="57" r="7" fill="url(#grad1)"></circle>
                        <!-- Neural connections -->
                        <line x1="45" y1="45" x2="60" y2="57" stroke="url(#grad1)" stroke-width="2"></line>
                        <line x1="75" y1="45" x2="60" y2="57" stroke="url(#grad1)" stroke-width="2"></line>
                        <line x1="45" y1="70" x2="60" y2="57" stroke="url(#grad1)" stroke-width="2"></line>
                        <line x1="75" y1="70" x2="60" y2="57" stroke="url(#grad1)" stroke-width="2"></line>
                        <!-- Data points -->
                        <circle cx="35" cy="35" r="3" fill="url(#grad1)"></circle>
                        <circle cx="85" cy="35" r="3" fill="url(#grad1)"></circle>
                        <circle cx="35" cy="80" r="3" fill="url(#grad1)"></circle>
                        <circle cx="85" cy="80" r="3" fill="url(#grad1)"></circle>
                    </svg>